<svg xmlns="http://www.w3.org/2000/svg" width="49.5" height="33" viewBox="0 0 49.5 33">
    <defs>
        <style>
            .cls-1{fill:#0375ba}
        </style>
    </defs>
    <path id="eye" d="M24.751 70.875a9.534 9.534 0 0 0-2.685.43 4.761 4.761 0 0 1 .622 2.32 4.812 4.812 0 0 1-4.813 4.813 4.761 4.761 0 0 1-2.32-.622 9.6 9.6 0 1 0 9.2-6.94zm24.449 8.37A27.563 27.563 0 0 0 24.751 64 27.568 27.568 0 0 0 .3 79.246a2.78 2.78 0 0 0 0 2.509A27.563 27.563 0 0 0 24.751 97 27.568 27.568 0 0 0 49.2 81.754a2.78 2.78 0 0 0 0-2.509zm-24.449 13.63A23.378 23.378 0 0 1 4.3 80.5a23.377 23.377 0 0 1 20.451-12.375A23.377 23.377 0 0 1 45.2 80.5a23.376 23.376 0 0 1-20.449 12.375z" class="cls-1" transform="translate(-.001 -64)"/>
</svg>
