<svg xmlns="http://www.w3.org/2000/svg" viewBox="0 0 122.17 122.17"><defs><style>.cls-1{fill:#ffffff;}</style></defs><title>GuidedTestHorz</title><g id="Ebene_2" data-name="Ebene 2"><g id="V2"><path id="GuidedTestHorz" class="cls-1" d="M119.33,97.54a13.25,13.25,0,0,0,1-1.59c.16-.29.33-.58.48-.88a13.36,13.36,0,0,0,.71-1.95c.08-.27.19-.53.25-.8a12.65,12.65,0,0,0,0-5.91c-.06-.27-.17-.53-.25-.8a13.36,13.36,0,0,0-.71-2c-.15-.3-.32-.59-.48-.88a13.25,13.25,0,0,0-1-1.59,10.28,10.28,0,0,0-.67-.81A12.6,12.6,0,0,0,117.2,79a5.33,5.33,0,0,0-.49-.46L90.51,59.19a13.41,13.41,0,0,0-20,16.73H51.89L117.1,24a13.44,13.44,0,0,0-8.37-24H13.45a13.45,13.45,0,1,0,0,26.89H70.28l-65.21,52a13.44,13.44,0,0,0,8.38,24H70.51a13.41,13.41,0,0,0,20,16.73l26.2-19.36c.19-.14.32-.32.49-.46a12.6,12.6,0,0,0,1.46-1.37A10.28,10.28,0,0,0,119.33,97.54Z"/></g></g></svg>