<svg xmlns="http://www.w3.org/2000/svg" viewBox="0 0 122.17 122.17"><defs><style>.cls-1{fill:#ffffff;}</style></defs><title>GuidedTestVert</title><g id="Ebene_2" data-name="Ebene 2"><g id="V2"><path id="GuidedTestVert" class="cls-1" d="M116.71,71.71a13.39,13.39,0,0,0-13.9-1.2V13.45a13.45,13.45,0,0,0-24-8.38l-52,65.21V13.45A13.45,13.45,0,1,0,0,13.45v95.28a13.44,13.44,0,0,0,24,8.37l52-65.2V70.51a13.41,13.41,0,0,0-16.73,20l19.36,26.21c.13.18.31.31.46.48a12.6,12.6,0,0,0,1.37,1.46,10.28,10.28,0,0,0,.81.67,13.25,13.25,0,0,0,1.59,1c.29.17.58.34.88.48a13.36,13.36,0,0,0,2,.71c.27.08.53.19.8.25a12.65,12.65,0,0,0,5.91,0c.27-.06.53-.17.79-.24a14.31,14.31,0,0,0,2-.72c.3-.14.59-.31.88-.48a12.14,12.14,0,0,0,1.59-1,10.28,10.28,0,0,0,.81-.67,12.6,12.6,0,0,0,1.37-1.46c.15-.17.33-.3.46-.48l19.36-26.21A13.45,13.45,0,0,0,116.71,71.71Z"/></g></g></svg>