<svg xmlns="http://www.w3.org/2000/svg" width="53" height="60.572" viewBox="0 0 53 60.572">
  <defs>
    <style>
      .cls-1 {
        fill: #fff;
      }
    </style>
  </defs>
  <path id="hand-paper" class="cls-1" d="M44.077,13.326V12.045a7.9,7.9,0,0,0-9.824-7.754A7.785,7.785,0,0,0,20.3,4.379a7.863,7.863,0,0,0-9.749,7.688V26.988A7.745,7.745,0,0,0,3.2,28.038,7.979,7.979,0,0,0,1.48,39.058L15.673,58.982a3.786,3.786,0,0,0,3.083,1.589h26.37a3.786,3.786,0,0,0,3.689-2.935l3.571-15.493a24.091,24.091,0,0,0,.615-5.4V21.176A7.871,7.871,0,0,0,44.077,13.326ZM47.321,36.74a18.406,18.406,0,0,1-.469,4.127L43.62,54.893H19.732L6.1,35.763C4.4,33.365,7.881,30.7,9.581,33.089l3.209,4.5a1.894,1.894,0,0,0,3.434-1.1V12.067a2.166,2.166,0,1,1,4.326.082V30.285a1.893,1.893,0,0,0,1.893,1.893h.811a1.893,1.893,0,0,0,1.893-1.893V7.926a2.166,2.166,0,1,1,4.326.082V30.285a1.893,1.893,0,0,0,1.893,1.893h.811a1.893,1.893,0,0,0,1.893-1.893V11.963a2.166,2.166,0,1,1,4.326.082V30.285a1.893,1.893,0,0,0,1.893,1.893H41.1a1.893,1.893,0,0,0,1.893-1.893V21.258a2.166,2.166,0,1,1,4.326-.082V36.74Z" transform="translate(0 0)"/>
</svg>
