<svg xmlns="http://www.w3.org/2000/svg" viewBox="0 0 423.46 401.81"><defs><style>.cls-1{fill:#7a7a7a;}.cls-2{fill:#c2c1c1;}.cls-3{fill:#929292;}</style></defs><title>Mold</title><g id="Ebene_2" data-name="Ebene 2"><g id="MoldSides"><g id="Mold"><g id="Fixed"><polygon class="cls-1" points="353.07 166.09 15.17 361.17 15.17 203.85 353.07 8.76 353.07 166.09"/><polygon class="cls-2" points="353.07 8.76 15.17 203.85 0 195.09 337.9 0 353.07 8.76"/><polygon class="cls-3" points="0 352.42 15.17 361.17 15.17 203.85 0 195.09 0 352.42"/></g><g id="Right"><polygon class="cls-2" points="109.26 213.22 94.41 221.8 39.27 189.96 54.12 181.39 109.26 213.22"/><polygon class="cls-3" points="39.27 347.26 94.41 379.09 94.41 221.8 39.27 189.96 39.27 347.26"/><polygon class="cls-1" points="109.26 370.51 94.41 379.09 94.41 221.8 109.26 213.22 109.26 370.51"/></g><g id="Left"><polygon class="cls-2" points="384.2 54.56 369.35 63.13 314.21 31.3 329.06 22.73 384.2 54.56"/><polygon class="cls-3" points="314.21 188.59 369.35 220.43 369.35 63.13 314.21 31.3 314.21 188.59"/><polygon class="cls-1" points="384.2 211.85 369.35 220.43 369.35 63.13 384.2 54.56 384.2 211.85"/></g><g id="Loose"><polygon class="cls-1" points="423.46 206.72 85.56 401.81 85.56 244.49 423.46 49.4 423.46 206.72"/><polygon class="cls-2" points="423.46 49.4 85.56 244.49 70.39 235.73 408.29 40.64 423.46 49.4"/><polygon class="cls-3" points="70.39 393.05 85.56 401.81 85.56 244.49 70.39 235.73 70.39 393.05"/></g></g></g></g></svg>