<svg xmlns="http://www.w3.org/2000/svg" width="50.071" height="50.071" viewBox="0 0 50.071 50.071">
  <defs>
    <style>
      .cls-1 {
        fill: #fff;
      }

      .cls-2 {
        fill: #0076bd;
      }

      .cls-3 {
        fill: #e2001a;
      }
    </style>
  </defs>
  <g id="Logo" transform="translate(-403.7 -0.4)">
    <path id="Pfad_6" data-name="Pfad 6" class="cls-1" d="M460.9,65.108h.036a6.686,6.686,0,0,0,4.932-2.212,6.657,6.657,0,0,0-4.9-11.1h-.036a6.615,6.615,0,0,0-4.061,1.378,6.667,6.667,0,0,0,4.025,11.93" transform="translate(-32.232 -32.779)"/>
    <path id="Pfad_7" data-name="Pfad 7" class="cls-2" d="M438.689,17.1a19.161,19.161,0,0,0-11.761,4.13,19.435,19.435,0,0,0-2.9,2.826A19.023,19.023,0,0,0,419.6,36.519a19.649,19.649,0,0,0,.544,4.42,19.2,19.2,0,0,0,18.766,14.637v-4.71a14.547,14.547,0,0,1-.182-29.093h.109a14.541,14.541,0,0,1,14.592,14.383A14.3,14.3,0,0,1,449.76,45.9l.508.471,3.013,2.681A18.921,18.921,0,0,0,458,38.295a20.541,20.541,0,0,0,.109-2.138A12.435,12.435,0,0,0,458,34.49a19,19,0,0,0-4.392-10.507,19.422,19.422,0,0,0-8.929-5.978,19.757,19.757,0,0,0-5.88-.906h-.109" transform="translate(-10.13 -10.644)"/>
    <path id="Pfad_8" data-name="Pfad 8" class="cls-3" d="M436.7,47.174a13.016,13.016,0,0,0,12.965,13h.073A13.037,13.037,0,0,0,449.81,34.1l-.036,4.889a8.13,8.13,0,0,1-.036,16.261H449.7a8.1,8.1,0,0,1-4.939-14.522l-3.014-3.875A13.1,13.1,0,0,0,436.7,47.174" transform="translate(-21.034 -21.48)"/>
    <path id="Pfad_9" data-name="Pfad 9" class="cls-3" d="M453.235,30.984c.036-.181.073-.4.109-.58,0-.036.036-.109.036-.145.036-.254.073-.471.109-.725h0c.109-.8.218-1.631.254-2.428s.036-1.631,0-2.464v-.217c0-.254-.036-.544-.036-.8a.8.8,0,0,0-.036-.29l-.109-.87c-.036-.181-.036-.4-.073-.58,0-.072-.036-.181-.036-.254a27.475,27.475,0,0,0-.944-3.877c0-.036-.036-.109-.036-.145-.109-.29-.181-.544-.29-.833l-.109-.326c-.073-.217-.181-.435-.254-.652-.073-.145-.145-.326-.218-.471s-.145-.29-.218-.471c-.109-.217-.181-.4-.29-.616a2.143,2.143,0,0,0-.145-.29,7.178,7.178,0,0,0-.4-.725c-.036-.072-.073-.109-.109-.181-.145-.254-.327-.544-.472-.8,0-.036-.036-.036-.036-.072-.181-.29-.363-.58-.544-.833h0a24.226,24.226,0,0,0-4.609-5l-1.814,2.174-.944,1.123a19.8,19.8,0,0,1,2.758,2.754h0a22.431,22.431,0,0,1,2,2.863v.036c.145.254.254.471.4.725,0,.036.036.072.036.109l.327.652a.612.612,0,0,1,.073.181c.073.181.181.4.254.58a1.285,1.285,0,0,0,.145.326c.073.145.109.326.181.471a2.041,2.041,0,0,1,.145.435c.036.109.073.254.109.362.073.181.109.362.181.544a.852.852,0,0,1,.073.29c.073.217.109.435.181.652.036.072.036.145.073.217.036.217.109.435.145.652,0,.072.036.181.036.254s.036.145.036.217a1.567,1.567,0,0,0,.036.181,16.65,16.65,0,0,1,.218,1.884v.036a6.412,6.412,0,0,1,.036.833V26.02a23.366,23.366,0,0,1-.254,2.827h0c-.036.29-.109.58-.145.87,0,.072-.036.109-.036.181-.036.217-.109.471-.145.689a1.056,1.056,0,0,0-.073.326c-.036.181-.109.326-.145.507-.036.145-.109.326-.145.471-.036.109-.073.254-.109.362-.073.181-.145.362-.218.58-.036.072-.073.181-.109.254-.073.217-.181.4-.254.616a.515.515,0,0,0-.073.217c-.109.217-.181.435-.29.652-.036.072-.073.109-.073.181-.109.217-.218.4-.327.616a.791.791,0,0,1-.109.181l-.327.544a.758.758,0,0,1-.145.217c-.145.217-.29.471-.435.689-.036.072-.073.109-.109.181-.181.254-.363.544-.581.8-.073.072-.145.181-.218.254-.145.181-.254.326-.4.507a5.572,5.572,0,0,1-.435.471c-.073.072-.109.145-.181.217-.218.217-.4.435-.617.652l-.073.072c-.218.217-.472.471-.726.689l-.036.036c-.254.217-.508.471-.8.689h0c-.254.217-.544.435-.835.652h-.036c-.254.181-.544.4-.835.58-.036,0-.036.036-.073.036-.254.181-.544.326-.8.507-.036.036-.073.036-.145.072-.254.145-.508.29-.726.4a2.082,2.082,0,0,0-.254.145l-.653.326c-.109.072-.254.109-.363.181l-.544.217c-.181.072-.327.145-.508.217a2.049,2.049,0,0,1-.435.145l-.653.217c-.109.036-.254.072-.363.109-.254.072-.508.145-.726.217-.109.036-.218.036-.327.072-.254.072-.508.109-.762.181-.109.036-.218.036-.327.072a8.486,8.486,0,0,1-.944.145c-.073,0-.181.036-.254.036-.254.036-.508.036-.762.072-.145,0-.29.036-.472.036a2.751,2.751,0,0,0-.544.036h-.944c-.363,0-.762,0-1.125-.036h-.036l-1.089-.109h-.109a9.128,9.128,0,0,1-.98-.145c-.073,0-.145-.036-.218-.036a6.871,6.871,0,0,1-.835-.181c-.109-.036-.218-.036-.327-.072-.218-.072-.472-.109-.689-.181l-.435-.109c-.181-.072-.363-.109-.544-.181s-.363-.109-.544-.181a2.22,2.22,0,0,1-.435-.181,4.431,4.431,0,0,1-.617-.254c-.109-.036-.254-.109-.363-.145-.218-.109-.435-.181-.653-.29a1.472,1.472,0,0,1-.327-.181c-.218-.109-.435-.217-.617-.326-.109-.072-.218-.109-.327-.181a5.082,5.082,0,0,1-.581-.362,2.2,2.2,0,0,1-.363-.254,4.4,4.4,0,0,1-.508-.362,3.026,3.026,0,0,0-.435-.29,3.856,3.856,0,0,1-.4-.326c-.181-.145-.327-.254-.508-.4a1.818,1.818,0,0,1-.29-.254,21.237,21.237,0,0,1-2.214-2.21l-.653-.761a23.617,23.617,0,0,1-1.815-2.718c-.218-.435-.435-.833-.653-1.268-.036-.036-.036-.072-.073-.145-.073-.181-.181-.362-.254-.544-.036-.072-.073-.181-.109-.254a2.516,2.516,0,0,1-.181-.471l-.109-.326c-.073-.145-.109-.326-.181-.471a3.956,3.956,0,0,1-.181-.616c-.036-.072-.036-.145-.073-.217l-.218-.87V30.3c-.073-.29-.145-.616-.218-.942-.145-.725-.218-1.413-.29-2.138a1.231,1.231,0,0,0-.036-.362c0-.217-.036-.4-.036-.616v-.978a5.345,5.345,0,0,1,.036-.761v-.362a4.9,4.9,0,0,1,.073-.725c0-.145.036-.254.036-.4.036-.217.036-.435.073-.616s.036-.326.073-.507.073-.326.109-.471a3.065,3.065,0,0,1,.145-.616,1.057,1.057,0,0,0,.073-.326c.073-.254.109-.507.181-.761.036-.072.036-.145.073-.217a5.628,5.628,0,0,1,.29-.833c0-.036.036-.072.036-.109a6.739,6.739,0,0,1,.363-.906h0a18.3,18.3,0,0,1,1.415-2.79l.036-.036c.181-.29.327-.544.508-.8.036-.036.073-.109.109-.145.145-.217.327-.471.472-.689a1.534,1.534,0,0,0,.181-.254c.327-.4.617-.8.98-1.2.327-.4.689-.761,1.052-1.123l.181-.181c.145-.145.327-.29.472-.435a.5.5,0,0,1,.145-.109c.145-.145.29-.254.435-.4.145-.109.29-.254.436-.362l.109-.109c.181-.145.363-.29.581-.435.036-.036.073-.036.109-.072.181-.145.363-.254.581-.4.036-.036.073-.072.109-.072l.544-.326c.073-.036.109-.072.181-.109.145-.109.327-.181.472-.29.109-.036.181-.109.29-.145.145-.072.254-.145.4-.217a1.946,1.946,0,0,1,.4-.181,2.154,2.154,0,0,0,.29-.145c.181-.072.363-.145.508-.217.073-.036.145-.036.181-.072.218-.072.435-.181.653-.254.036,0,.036-.036.073-.036a20.7,20.7,0,0,1,3.339-.942h.036a19.6,19.6,0,0,1,3.883-.362h.036V.4h-.036a25.025,25.025,0,0,0-7.947,1.3c-.036,0-.036.036-.073.036-.29.109-.617.217-.907.326a.516.516,0,0,1-.218.072c-.254.109-.508.181-.726.29-.109.036-.254.109-.363.145-.181.072-.4.181-.581.254-.145.072-.327.145-.472.217l-.435.217c-.181.109-.363.181-.544.29-.109.072-.254.145-.363.217a5.08,5.08,0,0,0-.581.362,1.471,1.471,0,0,1-.327.181,5.544,5.544,0,0,0-.581.4,2.013,2.013,0,0,0-.29.217c-.181.145-.363.254-.544.4a1.994,1.994,0,0,0-.327.254,4.6,4.6,0,0,0-.472.4.791.791,0,0,0-.181.145l-.145.145c-.181.145-.327.29-.508.435-.073.072-.181.145-.254.217-.181.181-.363.326-.544.507-.036.036-.109.072-.145.145l-.109.109c-.218.217-.4.4-.581.616-.073.072-.145.181-.218.254-.181.181-.363.4-.544.616a1.818,1.818,0,0,1-.254.29c0,.036-.036.036-.036.072l-.327.435a24.847,24.847,0,0,0-4.173,7.791v.036c-.109.29-.181.616-.29.942a1.12,1.12,0,0,0-.073.29c-.073.217-.109.471-.181.689a3.018,3.018,0,0,1-.145.544c-.036.181-.073.326-.109.507-.036.254-.109.507-.145.8,0,.109-.036.217-.036.326l-.109.978v.181c-.036.362-.073.725-.073,1.087v.145c0,.362-.036.761-.036,1.123v1.087a10.233,10.233,0,0,0,.073,1.051c0,.109.036.217.036.326.036.29.073.616.109.906,0,.072.036.145.036.254a26.093,26.093,0,0,0,1.56,5.834.126.126,0,0,0,.036.072,3.652,3.652,0,0,0,.254.544c.036.109.109.254.145.362.036.036.036.109.073.145a25.381,25.381,0,0,0,7.367,9.277c.036.036.073.036.109.072.145.109.254.181.4.29s.254.181.4.29c.036.036.073.036.109.072a25.162,25.162,0,0,0,5.7,3.008l.653.217a.673.673,0,0,0,.254.072,2.676,2.676,0,0,0,.508.145c.145.036.327.109.472.145l.435.109a3.8,3.8,0,0,0,.617.145c.109.036.218.036.327.072a5.211,5.211,0,0,0,.8.145c.073,0,.109.036.181.036.109.036.218.036.327.072a3.2,3.2,0,0,0,.617.072h.109a26.221,26.221,0,0,0,4.79.217h.218c.327-.036.617-.036.944-.072.218-.036.435-.036.653-.072.145-.036.327-.036.472-.072a6.705,6.705,0,0,0,.835-.145h.073a.218.218,0,0,0,.145-.036c.109-.036.181-.036.29-.072a6.328,6.328,0,0,0,.8-.181,2.082,2.082,0,0,0,.508-.145l.762-.217c.181-.072.363-.109.544-.181l.653-.217a4.848,4.848,0,0,0,.653-.254c.181-.072.327-.145.508-.217l.762-.326a3.768,3.768,0,0,1,.363-.145l.871-.435.218-.109.98-.544a.127.127,0,0,0,.073-.036c.363-.217.689-.435,1.052-.652h0a24.352,24.352,0,0,0,3.048-2.355h0c.29-.29.617-.544.907-.833l.109-.109c.254-.254.508-.544.762-.8l.073-.072a6.026,6.026,0,0,1,.472-.507c.109-.109.181-.217.29-.326l.544-.652a.791.791,0,0,1,.145-.181c.218-.29.435-.58.653-.906a.79.79,0,0,0,.109-.181c.218-.326.435-.652.617-.978v-.036c.036-.036.036-.072.073-.109l.327-.544h0a25.172,25.172,0,0,0,2.323-5.581c0-.036.036-.109.036-.145.036-.181.109-.326.145-.507v-.072c.036-.109.036-.217.073-.326C453.2,31.238,453.235,31.129,453.235,30.984Z" transform="translate(0)"/>
  </g>
</svg>
