<svg xmlns="http://www.w3.org/2000/svg" viewBox="0 0 149.64 197.28"><defs><style>.cls-1{fill:#595c5e;}</style></defs><title>TestReport</title><g id="Ebene_2" data-name="Ebene 2"><g id="V2"><g id="TestReport"><g id="Test"><path id="Success" class="cls-1" d="M34,64.63h0a3.35,3.35,0,0,1-2.41-1l-6.8-7a3.36,3.36,0,0,1,4.82-4.69L34,56.45l14.58-15a3.36,3.36,0,0,1,4.82,4.69l-17,17.48A3.38,3.38,0,0,1,34,64.63Z"/><path class="cls-1" d="M122.46,50.39H69.63a3.36,3.36,0,0,1,0-6.72h52.83a3.36,3.36,0,0,1,0,6.72Z"/><path class="cls-1" d="M109.73,61.4H69.63a3.36,3.36,0,0,1,0-6.72h40.1a3.36,3.36,0,0,1,0,6.72Z"/><path id="Failed" class="cls-1" d="M43.77,129.17l7.35-7.57a3.36,3.36,0,0,0-4.81-4.69l-7.23,7.43-7.23-7.43A3.36,3.36,0,0,0,27,121.6l7.36,7.57L27,136.73a3.36,3.36,0,1,0,4.82,4.69L39.08,134l7.23,7.43a3.34,3.34,0,0,0,4.75.06,3.35,3.35,0,0,0,.06-4.75Z"/><path class="cls-1" d="M122.46,127H69.63a3.36,3.36,0,0,1,0-6.72h52.83a3.36,3.36,0,0,1,0,6.72Z"/><path class="cls-1" d="M109.73,138H69.63a3.36,3.36,0,1,1,0-6.72h40.1a3.36,3.36,0,1,1,0,6.72Z"/><path class="cls-1" d="M34,103h0a3.36,3.36,0,0,1-2.41-1l-6.8-7a3.36,3.36,0,0,1,4.82-4.68L34,94.77l14.58-15a3.36,3.36,0,1,1,4.82,4.69l-17,17.47A3.39,3.39,0,0,1,34,103Z"/><path class="cls-1" d="M122.46,88.7H69.63a3.36,3.36,0,0,1,0-6.72h52.83a3.36,3.36,0,0,1,0,6.72Z"/><path class="cls-1" d="M109.73,99.72H69.63a3.36,3.36,0,1,1,0-6.72h40.1a3.36,3.36,0,0,1,0,6.72Z"/></g><path class="cls-1" d="M146.28,197.28H3.36A3.37,3.37,0,0,1,0,193.92V3.36A3.37,3.37,0,0,1,3.36,0H114.42a3.36,3.36,0,0,1,2.43,1l31.86,33.25a3.34,3.34,0,0,1,.93,2.32V193.92A3.36,3.36,0,0,1,146.28,197.28ZM6.72,190.56h136.2V38L113,6.72H6.72Z"/></g></g></g></svg>