<?xml version="1.0" encoding="UTF-8" standalone="no"?>
<svg
   xmlns:dc="http://purl.org/dc/elements/1.1/"
   xmlns:cc="http://creativecommons.org/ns#"
   xmlns:rdf="http://www.w3.org/1999/02/22-rdf-syntax-ns#"
   xmlns:svg="http://www.w3.org/2000/svg"
   xmlns="http://www.w3.org/2000/svg"
   xmlns:sodipodi="http://sodipodi.sourceforge.net/DTD/sodipodi-0.dtd"
   xmlns:inkscape="http://www.inkscape.org/namespaces/inkscape"
   width="24"
   height="24"
   viewBox="0 0 24 24"
   version="1.1"
   id="svg22"
   sodipodi:docname="white_wrench.svg"
   inkscape:version="0.92.4 (5da689c313, 2019-01-14)">
  <metadata
     id="metadata28">
    <rdf:RDF>
      <cc:Work
         rdf:about="">
        <dc:format>image/svg+xml</dc:format>
        <dc:type
           rdf:resource="http://purl.org/dc/dcmitype/StillImage" />
        <dc:title></dc:title>
      </cc:Work>
    </rdf:RDF>
  </metadata>
  <defs
     id="defs26" />
  <sodipodi:namedview
     pagecolor="#ffffff"
     bordercolor="#666666"
     borderopacity="1"
     objecttolerance="10"
     gridtolerance="10"
     guidetolerance="10"
     inkscape:pageopacity="0"
     inkscape:pageshadow="2"
     inkscape:window-width="1920"
     inkscape:window-height="1137"
     id="namedview24"
     showgrid="false"
     inkscape:zoom="40.333333"
     inkscape:cx="9.6818182"
     inkscape:cy="12"
     inkscape:window-x="1912"
     inkscape:window-y="-8"
     inkscape:window-maximized="1"
     inkscape:current-layer="svg22" />
  <path
     d="M4.5.257l3.771 3.771c.409 1.889-2.33 4.66-4.242 4.242l-3.771-3.77c-.172.584-.258 1.188-.258 1.792 0 1.602.607 3.202 1.83 4.426 1.351 1.351 3.164 1.958 4.931 1.821.933-.072 1.852.269 2.514.931l9.662 9.662c.578.578 1.337.868 2.097.868 1.661 0 3.001-1.364 2.966-3.03-.016-.737-.306-1.47-.868-2.033l-9.662-9.663c-.662-.661-1.002-1.581-.931-2.514.137-1.767-.471-3.58-1.82-4.93-1.225-1.224-2.825-1.83-4.428-1.83-.603 0-1.207.086-1.791.257zm17.5 20.743c0 .553-.447 1-1 1-.553 0-1-.448-1-1s.447-1 1-1 1 .447 1 1z"
     id="path20"
     style="fill:#ffffff" />
</svg>
